<?xml version="1.0" encoding="UTF-8" standalone="no"?>
<svg
   xmlns:dc="http://purl.org/dc/elements/1.1/"
   xmlns:cc="http://creativecommons.org/ns#"
   xmlns:rdf="http://www.w3.org/1999/02/22-rdf-syntax-ns#"
   xmlns:svg="http://www.w3.org/2000/svg"
   xmlns="http://www.w3.org/2000/svg"
   viewBox="0 0 210.96146 61"
   height="61"
   width="210.96146"
   version="1.1"
   id="svg3390">
  <metadata
     id="metadata3396">
    <rdf:RDF>
      <cc:Work
         rdf:about="">
        <dc:format>image/svg+xml</dc:format>
        <dc:type
           rdf:resource="http://purl.org/dc/dcmitype/StillImage" />
        <dc:title></dc:title>
      </cc:Work>
    </rdf:RDF>
  </metadata>
  <defs
     id="defs3394" />
  <path
     id="path3400"
     d="m 95.500003,36.5 0,-24.5 3,0 C 101.2066,12 101.5,12.312097 101.5,15.19113 c 0,2.710144 0.18841,2.958284 1.25,1.646304 3.67035,-4.536044 12.59234,-6.368672 19.05084,-3.913154 1.70724,0.649092 3.73957,0.453737 6.82602,-0.656144 5.33466,-1.918333 10.21061,-1.206963 15.27256,2.228172 l 3.60058,2.443418 0,-2.469863 C 147.5,12.392237 147.97643,12 150.5,12 l 3,0 0,18.5 0,18.5 -3,0 c -2.5428,0 -3,-0.38556 -3,-2.529937 l 0,-2.529938 -2.84113,2.10054 C 140.38818,49.19812 134.62896,50.17463 128.87718,48.71655 125.21107,47.787189 122.88259,47.752319 119.5,48.57613 114.12676,49.88474 107.94474,48.7654 104.93555,45.939028 103.8001,44.872562 102.5626,44 102.18555,44 101.8085,44 101.5,47.825 101.5,52.5 l 0,8.5 -2.999997,0 -3,0 0,-24.5 z m 21.844297,6.617388 c 1.11083,-0.704014 1.06741,-1.387445 -0.25,-3.935027 C 116.19213,37.437745 115.5,33.668514 115.5,30.5 c 0,-3.168514 0.69213,-6.937745 1.5943,-8.682361 1.93616,-3.744124 0.58556,-5.17354 -4.0943,-4.333224 -6.75962,1.213756 -12.26145,8.643155 -11.07685,14.957623 1.39082,7.413695 10.55633,13.758556 15.42115,10.67535 z m 23.18843,-1.634315 c 5.7917,-2.995003 7.78157,-11.995291 4.01704,-18.169251 -2.76896,-4.541197 -5.67927,-5.772109 -12.82545,-5.424513 -2.21203,0.107595 -2.23151,0.1961 -0.69652,3.164455 2.4762,4.788443 2.94641,11.875528 1.08369,16.333641 -0.88632,2.121264 -1.61149,4.251887 -1.61149,4.734719 0,1.435102 6.8677,0.997654 10.03273,-0.639051 z M 126.5,30.5 c 0,-3.351358 -0.52111,-5.687594 -1.43847,-6.448936 -2.32434,-1.92903 -4.18616,5.526249 -2.5888,10.366304 C 124.22289,39.720417 126.5,37.505452 126.5,30.5 Z m 44.35819,18.54346 c -12.02694,-2.858039 -17.88853,-16.119301 -12.26214,-27.74187 2.42101,-5.001142 8.63523,-9.187604 14.88128,-10.025375 5.33026,-0.714938 14.09704,3.490021 16.97092,8.140048 C 193.16238,23.807814 193.09721,24 188.89392,24 c -2.64198,0 -4.12459,-0.659173 -5.54549,-2.465555 -1.06667,-1.356056 -3.48304,-2.891775 -5.36971,-3.41271 -6.38604,-1.76327 -11.57496,0.944949 -14.00578,7.309937 C 159.21955,37.87826 173.09307,48.78739 182.5,40 c 2.26232,-2.113325 4.21471,-3 6.60576,-3 1.86683,0 3.39424,0.34747 3.39424,0.772156 0,1.51876 -6.22978,8.294747 -8.84,9.615055 -3.66052,1.851579 -9.04719,2.548489 -12.80181,1.656249 z m 31.74098,-0.59775 C 196.62912,45.854636 196.56665,45.579754 196.5318,21.75 L 196.5,0 l 3,0 c 3,0 3,0 3,6 l 0,6 3.83333,0 c 4.60803,0 5.01785,0.327669 4.40693,3.523502 C 210.33329,17.652422 209.7218,18 206.38342,18 l -3.88342,0 0,11 c 0,9.666667 0.24242,11.242424 2,13 1.1,1.1 2.9,2 4,2 1.55556,0 2,0.666667 2,3 0,2.45604 -0.40797,2.9929 -2.25,2.96086 -1.2375,-0.0215 -3.78037,-0.70335 -5.65083,-1.51515 z M 0.5,44.2 c 0,-5.424016 1.233322,-7.2 5,-7.2 3.593484,0 5,1.744079 5,6.2 0,3.67619 0.114035,3.8 3.5,3.8 1.925,0 3.5,0.45 3.5,1 0,0.58824 -3.5,1 -8.5,1 l -8.5,0 0,-4.8 z m 9,-0.5 C 9.5,40.03826 8.010705,38 5.335184,38 3.224817,38 1.5,40.893712 1.5,44.434259 1.5,46.760957 1.872669,47 5.5,47 c 3.858586,0 4,-0.116667 4,-3.3 z M 24.726926,30.25 25,12.5 l 3,0 3,0 0.273074,17.75 L 31.546149,48 28,48 24.453851,48 24.726926,30.25 Z M 36.5,29.933578 l 0,-18.066423 2.75,0.316423 c 1.976432,0.227413 2.667344,0.808693 2.456163,2.066422 -0.16161,0.9625 0.17589,1.75 0.75,1.75 C 43.030273,16 43.5,15.622232 43.5,15.160515 43.5,13.604079 48.560311,12 53.470328,12 c 3.853512,0 5.557615,0.57335 8.125045,2.733705 2.1965,1.84823 3.3843,2.32728 3.66708,1.47896 1.2458,-3.737421 14.01218,-5.654143 19.04779,-2.859804 5.25337,2.915173 6.17605,6.033534 6.18317,20.897139 l 0.007,13.75 -2.92053,0 -2.92053,0 -0.32947,-13.088983 c -0.32871,-13.05893 -0.33619,-13.094753 -3.25435,-15.602462 -3.69377,-3.174218 -8.96354,-2.655393 -12.32512,1.213448 -2.07407,2.387045 -2.25,3.56256 -2.25,15.033761 l 0,12.444236 -2.92053,0 -2.92053,0 -0.32947,-13.088983 c -0.32871,-13.05893 -0.33619,-13.094753 -3.254353,-15.602462 -3.693774,-3.174218 -8.963541,-2.655393 -12.32512,1.213448 -2.074069,2.387045 -2.25,3.56256 -2.25,15.033761 l 0,12.444236 -3,0 -3,0 0,-18.066422 z m -36,3.114463 c 0,-0.523578 2.056841,-2.367103 4.570758,-4.096724 L 9.641516,25.806553 5.080667,22.653277 C 2.572201,20.918975 0.51536,19.1625 0.509909,18.75 0.504409,18.3375 4.4375,18.081071 9.25,18.180158 L 18,18.360316 10.5,18.930158 3,19.5 7.25,22.382886 c 2.3375,1.585588 4.25,3.166857 4.25,3.513932 0,0.347075 -1.8,1.743507 -4,3.103182 -2.2,1.359675 -4.001014,2.703405 -4.002253,2.986068 -0.0012,0.282663 3.148761,0.364505 7,0.181873 C 15.057849,31.951693 17.5,32.213271 17.5,32.917941 17.5,33.609152 14.429738,34 9,34 4.285969,34 0.5,33.57599 0.5,33.048041 Z M 8.5,13 0,12.372606 8.75,12.186303 C 14.040869,12.073651 17.5,12.395329 17.5,13 c 0,0.55 -0.1125,0.916164 -0.25,0.813697 C 17.1125,13.71123 13.175,13.345067 8.5,13 Z"
     style="fill:#f9c869;opacity:0.98600014;fill-opacity:1" />
</svg>
